<?xml version="1.0" encoding="utf-8"?>
<!--                     Made by: Remission special for SS220 SierraBay                    -->
<!-- Generator: Adobe Illustrator 22.0.1, SVG Export Plug-In . SVG Version: 6.00 Build 0)  -->
<svg version="1.1" id="Sierra"
	 xmlns="http://www.w3.org/2000/svg" xmlns:xlink="http://www.w3.org/1999/xlink" x="0px" y="0px" viewBox="0 0 1024 1024"
	 style="enable-background:new 0 0 1024 1024;" xml:space="preserve" opacity=".33" >
<style type="text/css">
	.st0{fill:#14355B;}
</style>
<metadata>
	<sfw>
		<slices></slices>
		<sliceSourceBounds  bottomLeftOrigin="true" height="961.4" width="950" x="129.6" y="118.2"></sliceSourceBounds>
	</sfw>
</metadata>
<path class="st0" d="M519.1,438.7l229.3-1.3c1.1,0,2-2.3,2-3.4v-5.3l0,0v-2l-224.7,2.7h-3.3c-0.4,0-0.9,0.1-1.3,0.1
	c-0.3,0.1-0.6,0.1-0.8,0.2c-0.7,0.3-1.2,0.8-1.2,1.3l0,0L519.1,438.7L519.1,438.7z"/>
<polygon class="st0" points="631.6,482.1 631.6,488.1 644.4,488 644.3,482 "/>
<polygon class="st0" points="650.6,481.9 650.6,487.9 663.3,487.8 663.3,481.8 "/>
<polygon class="st0" points="670.6,481.7 670.6,487.8 683.3,487.6 683.3,481.6 "/>
<polygon class="st0" points="612.1,482.3 612.2,488.3 624.9,488.2 624.9,482.2 "/>
<polygon class="st0" points="592.1,482.5 592.2,488.5 604.9,488.4 604.9,482.3 "/>
<polygon class="st0" points="571.9,482.8 572,488.8 584.7,488.7 584.6,482.6 "/>
<path class="st0" d="M627,777l11.2,13c2.9-18.1,5.6-34.9,8.4-52.6h-13c1.4-10.8,4.2-20.8,4.7-31l-38.9,50.8l19.1,36.2L627,777z"/>
<polygon class="st0" points="690,481.5 690.1,487.6 702.8,487.4 702.8,481.4 "/>
<polygon class="st0" points="545.2,483 532.4,483.1 532.5,489.2 545.2,489 "/>
<path class="st0" d="M615.7,94c0.1,0.1,0.3,0.1,0.5,0.1c0.7,0.2,1.4,0.3,2.1,0.3c3.3-1.3,5.2-3.3,5.9-6.2c0.1-0.6,0.2-1.1,0.2-1.7
	c0-0.6,0-1.2-0.1-1.8c-0.3-2.1-1.4-4.1-3.1-5.4l-0.7-0.3l-0.7-0.2c-0.2-0.1-0.5-0.2-0.7-0.3l-0.7-0.2l-11.1-2.6l-3.6,15.5l11.5,2.7
	C615.4,93.9,615.6,93.9,615.7,94z"/>
<polygon class="st0" points="697.6,395.5 697.6,395.5 697.6,395.6 697.7,409.3 697.7,409.3 697.7,409.3 749.2,408.7 750.4,408.7
	750.4,403.1 750.3,394.9 750.3,394.9 750.3,394.9 "/>
<path class="st0" d="M629.1,920.8l-0.4-0.8l-0.6-0.8l-1.2-1.9l-0.5-1.1l-0.7-0.8l-0.2-0.6c-0.1-0.1-0.2-0.2-0.3-0.3
	c0-0.1-0.1-0.2-0.2-0.3l-1.1-1.7l-0.2-0.4l-0.4-0.5l-0.1-0.4l-1.3-1.8l-0.3-0.7c-0.1-0.1-0.2-0.2-0.3-0.4c-0.1-0.1-0.1-0.2-0.2-0.3
	l-0.3-0.5l-0.2-0.2l-0.6-1.1c-0.1,0-0.1-0.2-0.2-0.4c-0.1-0.1-0.2-0.2-0.2-0.3l-0.4-0.3l-0.1-0.4c-0.3-0.4-0.5-0.8-0.6-1.2
	c-0.2,0-0.2,0-0.2-0.1l0.1-0.1l-1.1-1.4l0.1,0.4l-0.2,2.3v1l-0.3,1l0.1,0.8v0.8l-0.2,0.8l0,0.8l-0.2,0.9l0.1,0.4l-0.2,0.5
	c0,0.5,0.1,1.1,0,1.5c0,0.5-0.1,0.9-0.2,1.4v0.6l-0.1,0.7l-0.2,2.3v1.6l-0.1,0.7v1.3l0,0.5v0.5l-0.1,0.4l-0.1,0.4v0.3
	c0,0.5,0,0.9,0,1.4c0,0.3-0.1,0.7-0.1,1l14.6-3.7l-0.4-0.9L629.1,920.8z"/>
<polygon class="st0" points="783.7,408.8 816.3,408.4 816.2,401.6 816.2,394.7 816.2,394.7 816.2,394.7 784,395 783.6,395
	783.7,408.8 "/>
<polygon class="st0" points="651.4,409.6 651.4,409.6 664.3,409.4 683.6,409.2 683.5,395.4 651.3,395.8 "/>
<path class="st0" d="M561.7,914.1c-0.9-1.8-2.5-3.3-4.4-3.9l-0.7-0.1h-0.7l-0.7,0h-0.6l-10.7,1l1.4,15l11.1-1h0.9
	c0.7-0.1,1.4-0.2,2-0.4c2.5-2.1,3.7-4.5,3.5-7.3c0-0.6-0.1-1.1-0.3-1.7C562.2,915.1,562,914.6,561.7,914.1z"/>
<path class="st0" d="M989.4,473.5c-3.9-56.9-18.2-112.6-42-164.4C838.3,71.3,556-33.5,318.2,75.7C129.7,162.1,25,357.2,43.8,552.8
	c4,56.9,18.2,112.5,42,164.3C194.9,955,477.2,1059.7,715,950.6C903.4,864.2,1008.2,669.1,989.4,473.5z M856.7,232.2l7.7,15.6
	l17.3,2.5l-12.5,12.2l2.9,17.2l-15.4-8.1l-15.4,8.1l2.9-17.2l-12.5-12.1l17.3-2.5L856.7,232.2z M804.3,191.2l7.7-15.6l7.7,15.6
	l17.3,2.5l-12.5,12.2l2.9,17.3l-15.4-8.1l-15.4,8.1l2.9-17.2l-12.5-12.2L804.3,191.2z M746.5,146.4l7.7-15.6l7.7,15.6l17.3,2.5
	l-12.5,12.3l2.9,17.2l-15.4-8.1l-15.4,8.1l2.9-17.2l-12.5-12.2L746.5,146.4z M658.5,136.6l0.3-0.4l0.2-0.3l0.3-0.5
	c0.3-0.3,0.7-0.6,0.9-0.9l0.2-0.1l0.7-1l0.7-0.7l1.4-1.5l0.3-0.4l1-1l0.3-0.3l0.3-0.3c0.2-0.1,0.3-0.3,0.5-0.4
	c0.1-0.1,0.2-0.3,0.4-0.5l1.2-1.2l2.2-2.4l0.2-0.3l1.5-1.7l0.3-0.3c0.4-0.4,0.7-0.7,1-1.1c0.2-0.3,0.5-0.6,0.7-0.8l0.4-0.5l0.4-0.3
	c0.3-0.5,0.6-0.9,1-1.2l0.2-0.4l0.3-0.4l0.4-0.4c0.2-0.1,0.3-0.3,0.5-0.4c0.1-0.1,0.2-0.3,0.4-0.4l0.3-0.2l0.7-0.8l0.5-0.8l0.8-0.8
	l1-1.1l0.4-0.2l0.3-0.4l0.2-0.3l0.3-0.3l2.2-2.4l2.4-2.8l0.6-0.6c0.2-0.2,0.4-0.4,0.6-0.7l1.5-1.5l1.8-1.7l0.2-0.4l0.6-0.5l0.3-0.4
	l0.3-0.5l0.5-0.3l0.3-0.3l0.3-0.5l0.3-0.3l0.4-0.4l0.8-0.7l1.1-1.3l0.6-0.7l0.6,0.2l9.8,4.4L706,101c0,0.2,0,0.3,0,0.5
	c0,0.2-0.1,0.4-0.1,0.6v0.6l-0.1,1.4l0,0.3l-0.2,0.6v0.4l0,0.5l-0.1,1.1l0,0.3l-0.2,0.4c0.1,0.6,0.1,1.3,0,1.9l-0.1,0.6v0.3
	l-0.2,0.4c0,0.7,0,1.3-0.1,2l-0.2,1.1c0,0.3,0,0.6,0,0.9c0,0.3-0.1,0.6-0.1,0.9l0,1.1l-0.2,1.1l-0.1,1c0,0.1,0,0.1,0,0.2
	c0,0,0,0.1,0,0.1c0,0,0,0.1,0,0.1c0,0,0,0,0,0l0,0l0.1,0.5l-0.1,0.6c0,0.2,0,0.5,0,0.7v0.4l-0.2,0.5c0,0.9-0.1,1.7-0.4,2.5v0.4
	c0,0.2,0,0.4-0.1,0.6c0,0.1,0,0.3,0,0.4c0,0.1-0.1,0.3-0.1,0.4l-0.1,0.9v1.2l-0.2,0.6v0.4l-0.1,0.6v1.1l0,0.3l-0.2,0.4
	c0,0.4,0,0.7,0,1.1c0,0.3-0.1,0.6-0.2,0.8l-0.2,0.8c0.1,0.7,0,1.4-0.1,2.1c0,0.5,0,1-0.1,1.5c-0.1,0.4-0.1,0.8-0.2,1.3
	c0,0.1,0,0.3-0.1,0.4c0,0.1-0.1,0.3,0,0.4l0.1,1l-0.1,0.8c-0.2,0.4-0.2,0.9-0.2,1.4l-0.3,1.3l0.1,0.6v0.2l-0.2,1.2v0.7l-0.2,0.6
	c0,0.6,0,1.2-0.1,1.8l-0.2,1.5l0.1,0.5l-0.2,0.4c0,0.1,0,0.2-0.1,0.3c0,0.4,0,0.9-0.1,1.3c0,0.3,0,0.6-0.1,0.9
	c0,0.3-0.1,0.6-0.1,0.8l-8.4-3.8l0.1-0.6l0-0.7l0.2-0.8c0-0.1,0-0.3,0.1-0.4c0-0.5,0-0.9,0.1-1.4c0.1-0.4,0.1-0.9,0.3-1.3l-0.1-0.5
	l0.1-0.6c0.1-0.4,0.1-0.8,0.1-1.2l0.2-0.4c0-0.5,0-1,0.1-1.4c0-0.4,0.1-0.8,0.1-1.2l-12.5-5.6l-6.8-3.1l-0.4,0.4l-0.4,0.4l-0.4,0.6
	l-0.3,0.5c-0.3,0.2-0.5,0.4-0.8,0.6c-0.2,0.2-0.3,0.4-0.5,0.6l-0.2,0.3l-0.5,0.4c-0.1,0.1-0.1,0.2-0.2,0.3c0,0.1-0.1,0.2-0.2,0.3
	l-0.4,0.5l-0.2,0.3l-0.3,0.2l-2.3,2.5l-8.3-3.7L658.5,136.6z M590.2,108.9l4.4-18.9l4.5-19.7l1.1-4.9l0.5,0.1l15.1,3.5
	c0.4,0,0.8,0.1,1.2,0.2l1.1,0.3c8.6,2,13.5,7,14.9,15.2c0.1,1.9,0,3.9-0.4,5.8c-0.6,2.2-1.5,4.3-2.8,6.2c-2.1,3.4-5.8,5.5-9.8,5.7
	l0.2,0.3v0.5l0.7,2.2l0.3,1l0.1,0.8l0.6,2.5l0.3,1.3l0.2,0.4l0.1,0.5l0.1,1c0.1,0.2,0.1,0.5,0.2,0.7c0.1,0.2,0.2,0.5,0.2,0.8
	c0.1,0.3,0.2,0.6,0.2,0.8c0.1,0.2,0.2,0.5,0.2,0.8l0.2,0.9l0.1,0.8c0.2,0.3,0.3,0.7,0.3,1c0,0.3,0.1,0.7,0.1,0.9
	c0.4,0.9,0.6,1.8,0.6,2.7l0.2,0.4l0.1,0.3l0.1,0.2l0.2,1.5c0.2,0.4,0.3,0.9,0.3,1.4l-9.5-2.2l-0.3-1c-0.3-0.9-0.5-1.9-0.6-2.8
	l-0.2-0.8l-0.3-0.8l0-0.5c-0.2-0.4-0.3-0.8-0.4-1c-0.1-0.2-0.1-0.4-0.1-0.6l-0.1-0.3l-0.1-0.6v-0.4c-0.1-0.1-0.2-0.2-0.2-0.2
	l0.1-0.1l-0.2-0.3l-0.1-0.8l-0.5-1.8l-0.5-1.7l-0.1-0.6v-0.6l-0.1-0.4l-0.1-0.4l-0.2-0.4l-0.1-0.3c-0.1-0.6-0.2-1.3-0.4-1.9
	l-0.8-4.1l-9-2.1l-4.7,20.2l-9-2.1L590.2,108.9z M516.3,102.2l0.9-19.4l0.9-20.2l0.2-5h0.5l15.5,0.7c0.4,0,0.8,0,1.2,0l1.1,0
	c8.8,0.4,14.6,4.5,17.4,12.3c0.4,1.9,0.7,3.8,0.6,5.8c-0.1,2.3-0.7,4.5-1.7,6.6c-1.5,3.7-4.7,6.4-8.6,7.4l0.2,0.2l0.1,0.5l1,2
	l0.4,0.9l0.2,0.8l1.1,2.4l0.5,1.2l0.3,0.4l0.1,0.5l0.4,1c0.1,0.2,0.2,0.4,0.3,0.6c0.1,0.2,0.2,0.5,0.4,0.7s0.3,0.6,0.4,0.8
	c0.1,0.2,0.2,0.5,0.3,0.7l0.4,0.8l0.3,0.7c0.2,0.3,0.4,0.6,0.5,1c0.1,0.3,0.2,0.6,0.3,0.9c0.5,0.7,0.9,1.6,1.1,2.5l0.2,0.3l0.1,0.3
	l0.1,0.2l0.5,1.5c0.3,0.4,0.5,0.8,0.5,1.3l-9.7-0.4l-0.4-0.9c-0.5-0.8-0.8-1.7-1.1-2.7l-0.3-0.8l-0.5-0.7l-0.1-0.6
	c-0.2-0.4-0.4-0.7-0.5-1c-0.1-0.2-0.2-0.4-0.2-0.5l-0.1-0.3l-0.2-0.6l-0.1-0.5c-0.2-0.1-0.2-0.1-0.2-0.2l0.1-0.1l-0.3-0.2l-0.2-0.8
	l-0.8-1.7l-0.8-1.6l-0.2-0.6l-0.1-0.6l-0.2-0.4l-0.1-0.4l-0.2-0.4l-0.1-0.2c-0.2-0.6-0.5-1.2-0.8-1.8l-1.6-3.9l-9.2-0.4l-0.9,20.8
	L516,111L516.3,102.2z M441.2,64.1l21.2-2.8l11.2-1.5l1.1,8.4l-11.6,1.5l-12.4,1.7l1.8,13.2c0.1,0.4,0.3,0.5,0.6,0.5l14.8-2l2.2-0.3
	l4.4-0.6l1.1,8.1l-17,2.3l-5,0.7l1.9,13.9c0.1,0.4,0.2,0.6,0.5,0.6l4.6-0.6l18.9-2.5l1.7-0.2l1.1,8.3l-12.1,1.6l-17.7,2.3l-5.1,0.7
	l-1.8-13.6l-2.2-16l-2.8-21.3l-0.3-2.1L441.2,64.1z M392.2,75.6l8.3-2.3l14.4,51.3l-8.9,2.5l-4.6-16.6L396,91.6l-4.4-15.8
	L392.2,75.6z M331.4,96.6l1.4-0.8c0.4-0.2,0.9-0.4,1.4-0.7c7.2-3.2,14-3,20.2,0.8l-0.5,0.7c-0.1,0.3-0.2,0.5-0.3,0.8
	c-0.1,0.2-0.2,0.4-0.4,0.6l-0.4,1l-0.3,0.3c0,0.6-0.3,1.2-0.8,1.7c-0.1,0.7-0.4,1.4-1,1.9c0,0.2,0,0.5-0.1,0.7
	c-0.1,0.2-0.2,0.3-0.3,0.5c-4.7-2.7-9.3-3-13.7-1c-0.2,0.1-0.5,0.2-0.7,0.3c-0.3,0.1-0.5,0.3-0.8,0.4c-3.9,1.9-5.6,4.7-5.2,8.5
	c0.8,2.1,2.5,3.8,4.6,4.7l1.1,0.1l0.5-0.1l1.6,0.1l0.7-0.3l0.6-0.1l0.7-0.1c0.3,0,0.5,0,0.8-0.1c0.2-0.1,0.4-0.1,0.7-0.2l0.7-0.1
	l0.6-0.1l0.3-0.1l1.1-0.2l3.6-0.7l0.4-0.2h0.5l0.3-0.1l0.5,0l2-0.4h0.4l0.6-0.1l1.2-0.2c1-0.2,2.1-0.3,3.1-0.2l0.4,0.2h0.4l0.4,0.2
	c0.2,0.1,0.5,0.1,0.8,0.1c0.3,0,0.5,0.1,0.6,0.2l2.2,0.7c2.7,1.6,4.9,4,6.2,6.8c0.7,1.5,1.1,3.1,1.3,4.7c0.7,5.4-0.5,10-3.7,13.6
	c-0.2,0.3-0.4,0.6-0.6,0.8c-0.2,0.2-0.4,0.5-0.6,0.7c-2.1,1.6-4.5,2.9-6.9,3.9c-7.6,3.6-16.5,3.4-24-0.4v-0.3l0.2-0.3
	c0-0.1,0.1-0.1,0.1-0.1h0.1c0.2-0.7,0.6-1.4,1-2l0.2-0.7l1-1.9l0.2-0.2c0-0.1,0.1-0.2,0.2-0.3c0.2-0.9,0.6-1.8,1.1-2.5l0.4-0.2
	c5.7,3.1,10.9,3.6,15.5,1.5c2.6-1.2,4.8-2.9,6.6-5.1c0.2-0.7,0.5-1.3,0.8-1.9v-0.4c0.1-0.4,0.2-0.9,0.2-1.3c0-0.4,0-0.8-0.1-1.2
	l-0.3-0.7c-0.9-2.3-2.9-4-5.3-4.5h-0.5c-0.3,0-0.6,0-0.8,0.1c-0.2,0-0.5,0.1-0.7,0.1l-0.3-0.1l-0.4,0.2l-0.6,0.1H351l-0.4,0.2
	l-0.3,0c-0.4,0.1-0.8,0.2-1.2,0.3c-0.4,0.1-0.7,0.1-1.1,0.1l-0.4,0.2l-1.1,0.2l-0.3,0.1l-0.6,0.1h-0.3c-0.7,0.3-1.5,0.4-2.3,0.4
	c-8.9,2.8-15.6,0.5-20-6.8C319.1,109.2,321.9,101.9,331.4,96.6L331.4,96.6z M273.6,146l7.7-15.6L289,146l17.3,2.5l-12.5,12.2
	l2.9,17.2l-15.4-8.1l-15.5,8.1l2.9-17.2l-12.5-12.2L273.6,146z M359.1,165.1C547,78.9,769.7,161,857,348c-2.9-0.2-5.9-0.5-9-0.8
	c-63.2-131.2-195-208.6-332.5-208.6c-52.8,0-105.1,11.5-153.1,33.5c-81.1,37.2-142.2,100.5-178.1,175.3h-8.6
	C212.1,269.6,275.1,203.6,359.1,165.1z M548.4,342.8l210.7,1.2c1,0,6.7,5.8,11.4,10.4c0.7,0.7,0.8,1.9,0,2.6
	c-0.4,0.4-0.8,0.6-1.3,0.6h-210c-11.6,0-10.7-4.8-10.7-10.7L548.4,342.8z M215.7,190.8l7.7-15.6l7.7,15.6l17.3,2.5L236,205.5
	l2.9,17.2l-15.4-8.1l-15.4,8.1l2.9-17.2l-12.5-12.2L215.7,190.8z M171.1,247.4l7.7-15.6l7.7,15.6l17.3,2.5l-12.5,12.2l2.9,17.2
	l-15.4-8.1l-15.4,8.1l2.9-17.2l-12.5-12.2L171.1,247.4z M123.4,441.7l-0.1-18.1c0.1-1.5,1.3-2.6,2.8-2.6c1.7-0.1,3.1-1.1,3.1-2.6
	v-3.3c-0.1-1.5-1.4-2.6-2.9-2.5c-1.7-0.1-3.1-1.1-3.2-2.5l-0.1-19.4v-4l3.3,0l6-0.1l-0.1-10.9l17.1-4.7c1.3,0,12.9-5.1,16.1-5.1
	c1-0.4,335.6-19.3,335.6-19.3l39.8-0.4v0.7c0,8.9,0.3,20.5,15.8,20.8l213.2-3.3c2.6,0.1,4.9-1.8,5.2-4.5l40.1-0.5
	c1.5-0.1,2.9,1,3,2.5l0.1,11c0.1,1.5,1.5,2.6,3,2.5l40.7-0.2c1.2-0.1,2.4,0.7,2.9,1.8l5.3,15.8c0.4,1.1,1.5,1.8,2.7,1.8l16.7,0.7
	c1.4,0,2.6,1,2.8,2.4l1.3,14.6c0,7.5-7.2,13.6-16,13.5l-52.5,5.2c-1.5,0.1-2.2,1.7-3.3,3.2l-21.8,23.9l-523.6-1.7l-4,3.3l8.9,12.4
	l-18.1,0.2l-3.8-4.9l-6.5,5.1l-13.1,0.1l-4.6-5.9l-7,5.4l0.5,0.7L215,473l0,0l-2.6-0.1l-3.5-5.2l-7.1,4.6l-59.9-3.4
	c-0.9,0-9.5-17.3-10.1-17.9L123.4,441.7z M805,537.2c0,2.1-1.3,3.8-2.9,3.8h-4.4l-26.9,0.2c-1.7,0-2.9,1.7-2.9,3.8l0,5.2
	c0,2.1-1.3,3.8-2.9,3.8l-214.2,1.6h-0.2l-0.3-0.1h-0.1l-0.2-0.1h-0.1c-0.9-0.4-2.6-1.2-4.6-2.2l-2-1l-1.4-0.7l-1.8-0.9l-1.7-0.8
	l-6.1-3.2c-9.3-4.8-20-10.4-27.6-14.3l0.3,0.2l-0.7-0.3l0.1,0l-1.4-0.7h0.1l-1.1-0.6l0.3,0.1l-1.7-0.8l0.2,0.1l-1.3-0.7h0.1
	l-0.7-0.4h0c-0.5-0.2-0.9-0.4-1.3-0.6l0.1,0.1l-0.4-0.2h0.1l-1.1-0.5l0,0l-0.3-0.1l0,0l-0.7-0.3l0,0c-0.1,0-0.4-0.1-0.4-0.1l0,0
	l-37,0.4l-58.1-63l393.4,0.8l22.6-0.1l28.9,48.4l0,6.2l-2.5,0.1l-10.3,0.1l-11.8,0.1l-8.4,0.1h-3.9c-1.7,0-2.9,1.7-2.9,3.8
	L805,537.2z M764.3,575.2l-13.1,0.2l-0.1-9.5v-2.1l13.1-0.2v2.1L764.3,575.2z M746.4,575.4l-13.1,0.2l-0.1-9.5v-2l13.1-0.2v2l0,0
	L746.4,575.4z M446.6,778.1c7.8-26.8,14.6-53.8,22-80.7L428.1,716l14.4-82.8l-1-0.4c-0.7,0.7-1.2,1.5-1.8,2.3
	c-9.3,17.8-18.8,35.4-27.6,53.4c-3.5,7.3-8.6,12.8-14.2,18.2c-16.2,15.7-32.5,31.3-48.4,47.2c-2.9,2.9-35.2,46.8-35.2,46.8
	c-3.8-2.3-9.8-3.5-12-7.4l33-42.5l0,0c7.1-7.2,11.7-11.9,18.7-19.1c12.8-13,25.8-26,38.3-39.4c3.8-4.1,6.6-9.2,9.7-13.9
	c17.3-26.6,34.6-53.2,51.8-79.8c0.6-0.9,1.3-1.8,2.6-3.6c3.2,4.3,6.6,7.9,8.9,12.2c15.1,28.4,29.9,57,44.8,85.5
	c0.6,1.1,1.3,2.2,2.1,3.7c5.2,0,10.5,0.2,15.8-0.1c3.8-0.2,6.4,1.2,9,3.6c16.3,15.3,32.7,30.6,49.1,45.7c0.7,0.7,1.4,1.2,2.3,2
	l57.3-60.4c14,17.9,23.6,31.8,37.9,49.9l40.3,48.7c-57.4,61.4-157.3,77.5-208,77.5c-55.5,0-126-16.4-167.9-41.8l17-23.6
	c2.6-5.8,7.7-16.9,10.4-22.7c3.5,8.3,5.7,18.2,9.6,27.6l66.2-80C449.7,741.3,448.1,759.7,446.6,778.1L446.6,778.1z M447.7,539.7
	h10.9v13.1h-13.1v-13.1L447.7,539.7z M414.9,528.4l-58.8-63.6l31.5,0.1l58.4,63.2L414.9,528.4z M440.7,552.8h-13.1V540l13.1-0.2
	L440.7,552.8z M423.5,552.8h-13.1v-13.1h13.1L423.5,552.8L423.5,552.8z M405.5,552.8h-13.1v-13.1h13.1L405.5,552.8L405.5,552.8z
	 M403.1,528.5l-28.6,0.3l0,0l-0.2,0c-0.2,0-0.3-0.1-0.5-0.1c-0.2,0-0.3-0.1-0.5-0.1c-0.1-0.1-0.3-0.2-0.4-0.3l-0.2-0.1
	c-0.1-0.1-0.3-0.2-0.4-0.3c-0.2-0.3-0.3-0.5-0.4-0.8c-0.1-0.1-0.1-0.2-0.2-0.4c-0.2-0.5-0.2-1-0.2-1.5l-0.1-8.6c0-0.5-0.1-1-0.2-1.5
	c-0.1-0.2-0.2-0.3-0.2-0.5c-0.1-0.3-0.2-0.5-0.4-0.7l0,0c-0.1-0.1-0.3-0.2-0.4-0.3l-0.4-0.3c-0.1,0-0.1-0.1-0.2-0.2l0,0
	c-0.2-0.1-0.3-0.1-0.5-0.1c-0.2-0.1-0.4-0.1-0.6-0.2l0,0l-15.4,0.1l-44.5-48.2l35.6,0.1L403.1,528.5z M388.2,552.9h-13.1v-13h13.1
	L388.2,552.9L388.2,552.9z M341.2,513l-36,0.4c-0.2,0-0.4-0.1-0.7-0.2c-0.2,0-0.3-0.1-0.5-0.1c0,0-0.1-0.1-0.1-0.1
	c-0.1-0.1-0.3-0.2-0.4-0.4c-0.1-0.1-0.3-0.2-0.4-0.3c-0.1-0.2-0.2-0.3-0.3-0.5c0-0.1-0.1-0.1-0.1-0.2l-0.1-0.1
	c-0.1-0.1-0.1-0.2-0.2-0.3c-0.2-0.5-0.2-1-0.2-1.5l-0.1-8.5l-0.1-9.8c0-1-0.3-2-1-2.8l-11.7-16.3l-3.4-4.7l2-2.8h8.5L341.2,513z
	 M462.9,539.7H476v13.1h-13.1L462.9,539.7z M480.9,539.7h13.1v13.1h-13.1L480.9,539.7z M645.3,565.2l13.1-0.2v1.6l0.1,9.9l-13.1,0.2
	l-0.1-9.9L645.3,565.2z M662.6,564.9l13.1-0.2v1.7l0.1,9.8l-13.1,0.2l-0.1-9.8L662.6,564.9z M680.6,564.7l13.1-0.2v1.8l0.1,9.7
	l-13.1,0.2l-0.1-9.7V564.7z M697.9,564.5l13.1-0.2v1.8l0.1,9.6L698,576l-0.1-9.6l0,0L697.9,564.5z M716.1,575.7l-0.1-9.5l0,0v-1.9
	l13.1-0.2v2l0.1,9.5L716.1,575.7z M182.3,792.8l-7.7-15.6l-17.3-2.5l12.5-12.2l-2.9-17.2l15.4,8.1l15.4-8.1l-3,17.2l12.5,12.2
	l-17.3,2.5L182.3,792.8z M227.8,849.2l0.2-1.1v-0.4l0.1-0.4c0-0.4,0.1-0.9,0.1-1.3c0-0.4,0.1-0.8,0.1-1.1l0.2-0.3
	c0-0.6,0.1-1.1,0.1-1.6c0-0.3,0.1-0.7,0.2-1l0-1l0.3-2.4l0.1-0.3V838l0.2-1.1c0-0.5,0.1-1,0.3-1.4c0-0.3,0-0.6,0-0.9
	c0-0.2,0-0.5,0.1-0.7c0.1-0.4,0.1-0.9,0.3-1.3c-0.1-0.1-0.1-0.3,0-0.4l0-0.3l0.2-0.4v-0.4l0.1-0.4V829l0.5-3l0.2-0.7
	c0-0.3,0-0.7,0.1-1c0.1-0.3,0.2-0.6,0.2-0.9c0-0.8,0.1-1.5,0.4-2.3l-0.1-0.8l0.2-0.7l0-0.8l0.2-1l0.1-0.6c0-0.3,0-0.6,0.1-0.8
	c0-0.2,0.1-0.5,0.1-0.7l0.1-1c0-0.1,0-0.1,0-0.2c0-0.1,0-0.1,0-0.2l0.2-1.6c0.1-0.6,0.2-1.2,0.4-1.8v-0.5l0.1-0.4v-0.6l0.1-0.3
	c0-0.1,0-0.2,0-0.3c0-0.1,0-0.1,0-0.2c0-0.1,0-0.2,0-0.3c0-0.8,0.2-1.6,0.3-2.4l-24.2,27.1l-6.5-5.8l5.5-6.2l12.2-13.7l12.7-14.3
	l3.2-3.6l0.4,0.3l6.9,6.1l-0.2,1l0,0.4l-0.2,1.1c0,0.3,0,0.6-0.1,0.8c0,0.2-0.1,0.5-0.1,0.7l0,0.3l-0.1,0.2l-0.3,2.2l-0.2,1l-0.1,1
	c0,0.1,0,0.2-0.1,0.2c0,0.5,0,0.9-0.1,1.4c-0.1,0.3-0.1,0.6-0.2,1c0,0.8-0.1,1.5-0.2,2.2l-0.1,0.8l-0.3,0.9l-0.1,0.5l0.1,0.4l-0.2,1
	l0.1,0.4l-0.3,1.7l-0.2,0.9l-0.1,1l-0.2,1.6v0.4l-0.1,0.4l-0.2,0.4v0.5l-0.1,0.3l-0.2,1.1v0.4l-0.2,1.7l-0.1,0.2l-0.1,0.5
	c0,0.1,0,0.2,0,0.3v0.9c0,0.2,0,0.5-0.1,0.7l-0.1,0.8l-0.2,0.6v0.9c0,0.3-0.1,0.6-0.2,0.8l-0.2,0.9c0,0.2,0,0.5-0.1,0.7
	c0,0.1,0,0.2,0,0.3l-0.1,0.9c-0.1,0.4-0.1,0.7-0.2,1c0,0.3-0.1,0.6-0.2,0.8c-0.1,0.1-0.1,0.3,0,0.4l0.1,0.5l-0.2,0.3v0.8l-0.3,0.4
	v1.4c0,0.4-0.1,0.7-0.1,1l9.8-11l12.9-14.7l1.3-1.5l6.5,5.8L235,855.7L227.8,849.2z M309.4,847.2c0,0.1-0.1,0.3-0.1,0.4
	c0,0.2-0.1,0.4-0.2,0.5l-0.1,0.6l-0.3,1.3l-0.1,0.3l-0.2,0.5l-0.1,0.4l-0.1,0.5l-0.2,1v0.3l-0.2,0.4c0,0.6-0.1,1.2-0.3,1.8l-0.2,0.5
	v0.3l-0.2,0.3c-0.1,0.6-0.2,1.2-0.4,1.8l-0.4,1c0,0.3-0.1,0.6-0.1,0.8c-0.1,0.3-0.1,0.6-0.3,0.8l-0.2,1l-0.4,1l-0.2,0.9
	c-0.1,0.1-0.1,0.1-0.1,0.2c0,0,0,0.1,0,0.1v0.6l-0.2,0.5c0,0.3-0.1,0.5-0.1,0.6c0,0.1,0,0.3,0,0.4l-0.3,0.4
	c-0.1,0.8-0.3,1.6-0.7,2.3v0.4c0,0.2-0.1,0.4-0.1,0.5c0,0.1,0,0.3,0,0.4c0,0.1-0.1,0.2-0.1,0.4l-0.3,0.8l-0.1,0.8v0.3l-0.2,0.5
	l-0.1,0.4l-0.1,0.5l-0.2,1v0.3l-0.2,0.4c0,0.3-0.1,0.7-0.2,1c-0.1,0.3-0.2,0.5-0.3,0.8l-0.3,0.7c0,0.7-0.2,1.3-0.4,2
	c-0.1,0.5-0.2,1-0.3,1.4l-0.3,1.2c0,0.1-0.1,0.2-0.1,0.4c-0.1,0.1-0.1,0.2-0.1,0.4l0,1l-0.2,0.7c-0.2,0.4-0.3,0.8-0.4,1.3l-0.5,1.2
	v0.6l0,0.2l-0.3,1.1l-0.1,0.7l-0.2,0.5c-0.1,0.6-0.2,1.1-0.4,1.7c-0.1,0.5-0.3,1-0.4,1.4v0.4l-0.2,0.4c0,0.1,0,0.2-0.1,0.3
	c0,0.4-0.1,0.8-0.2,1.2c0,0.3-0.1,0.5-0.2,0.8c-0.1,0.3-0.1,0.6-0.2,0.8l-7.3-4.6l0.2-0.5l0-0.6l0.3-0.8c0-0.1,0-0.3,0.1-0.3
	c0.1-0.4,0.1-0.9,0.2-1.3c0.1-0.4,0.3-0.8,0.4-1.1l0-0.5l0.2-0.5c0.1-0.4,0.2-0.7,0.2-1.1l0.2-0.3c0.1-0.5,0.2-1,0.3-1.3
	c0.1-0.4,0.2-0.8,0.3-1.1l-10.9-6.9l-6-3.8l-0.4,0.4l-0.4,0.3l-0.5,0.5l-0.3,0.4c-0.3,0.1-0.6,0.3-0.8,0.5c-0.2,0.1-0.4,0.3-0.5,0.4
	l-0.2,0.2l-0.5,0.3c-0.1,0.1-0.2,0.1-0.2,0.2c-0.1,0.1-0.1,0.2-0.2,0.2l-0.4,0.4l-0.3,0.3l-0.3,0.2l-2.5,2l-7.3-4.6l0.2-0.3l0.4-0.3
	l0.3-0.3l0.3-0.4c0.4-0.2,0.7-0.4,1-0.7h0.2l0.8-0.8l0.8-0.6l1.5-1.2l0.3-0.4l1-0.8l0.3-0.3l0.3-0.3c0.2-0.1,0.3-0.2,0.5-0.3
	c0.1-0.1,0.3-0.3,0.4-0.4l1.2-1l2.4-2l0.3-0.3l1.7-1.4l0.3-0.2c0.4-0.3,0.8-0.6,1.1-0.9c0.3-0.2,0.5-0.5,0.8-0.7l0.4-0.4l0.4-0.2
	c0.3-0.4,0.7-0.7,1.1-1l0.3-0.3l0.4-0.3l0.4-0.3c0.2-0.1,0.3-0.2,0.5-0.4c0.1-0.1,0.3-0.2,0.4-0.3l0.3-0.2l0.8-0.7l0.6-0.7l0.9-0.6
	l1-0.9l0.3-0.2l0.4-0.3l0.3-0.3l0.3-0.2l2.4-2l2.6-2.3c0.2-0.2,0.4-0.3,0.7-0.5c0.2-0.2,0.4-0.4,0.6-0.6l1.6-1.2l1.9-1.4l0.2-0.3
	l0.6-0.4l0.3-0.3l0.4-0.4l0.5-0.2l0.3-0.2l0.4-0.5l0.3-0.3l0.4-0.4l0.8-0.6l1.2-1.1l0.6-0.6l0.5,0.3l8.6,5.4L309.4,847.2z
	 M364.1,928.5l-9-3.8l-0.1-1.1l-0.2-0.4v-0.4c-0.1-0.5-0.2-0.9-0.3-1.3s-0.2-0.7-0.3-1l0.1-0.3c-0.2-0.6-0.3-1.1-0.4-1.5
	c-0.1-0.3-0.1-0.7-0.1-1l-0.3-1l-0.5-2.4v-0.3l-0.1-0.3l-0.1-1.1c-0.2-0.5-0.3-1-0.2-1.4c-0.1-0.3-0.2-0.5-0.3-0.8
	c-0.1-0.2-0.1-0.5-0.1-0.7c-0.1-0.5-0.1-1-0.2-1.3c-0.1-0.1-0.1-0.2-0.1-0.4l-0.2-0.3v-0.4l-0.1-0.4v-0.4c-0.1-0.3-0.2-0.6-0.3-0.9
	c-0.1-0.3-0.2-0.5-0.2-0.8l-0.6-3v-0.7c-0.1-0.3-0.2-0.7-0.3-1c0-0.3-0.1-0.7-0.1-0.9c-0.2-0.7-0.4-1.5-0.4-2.3l-0.3-0.7v-0.8
	l-0.3-0.8l-0.1-1l-0.1-0.6c-0.1-0.3-0.1-0.6-0.2-0.8c0-0.2,0-0.5-0.1-0.7l-0.2-1c0-0.1,0-0.1-0.1-0.2c0,0-0.1-0.1-0.1-0.2l-0.3-1.6
	c-0.1-0.6-0.2-1.2-0.2-1.8l-0.2-0.5v-0.4l-0.2-0.6V885c0-0.1-0.1-0.2-0.1-0.2c0-0.1,0-0.1,0-0.2c0-0.1-0.1-0.2,0-0.3
	c-0.2-0.8-0.4-1.6-0.5-2.4l-14,33.5l-8.1-3.4l3.2-7.7l7.1-17l7.4-17.6l1.8-4.4l0.5,0.2l8.5,3.6l0.1,1l0.2,0.4l0.1,1.1
	c0.1,0.3,0.1,0.5,0.2,0.8c0,0.2,0.1,0.5,0.1,0.7l0.1,0.2v0.2l0.4,2.1l0.2,1l0.3,1c0,0.1,0,0.2,0,0.3c0.2,0.4,0.3,0.9,0.3,1.3
	c0.1,0.3,0.1,0.7,0.1,1c0.2,0.7,0.4,1.4,0.6,2.2l0.2,0.8v1.4l0.2,0.3l0.1,1l0.2,0.3l0.3,1.8l0.1,1l0.3,0.9l0.4,1.6l0.2,0.4l0.1,0.4
	v0.4l0.1,0.5l0.1,0.3l0.2,1.1l0.1,0.3l0.4,1.7v0.2l0.1,0.5c0,0.1,0.1,0.2,0,0.3c0.1,0.3,0.2,0.6,0.3,0.8c0.1,0.2,0.1,0.5,0.2,0.7
	l0.1,0.8v0.6c0.1,0.3,0.2,0.6,0.2,0.8c0.1,0.3,0.1,0.5,0.1,0.8l0.2,1c0.1,0.2,0.1,0.4,0.2,0.7c0,0.1,0,0.2,0.1,0.3l0.2,0.9
	c0.1,0.4,0.1,0.7,0.2,1c0.1,0.3,0.1,0.5,0.1,0.8c0,0.2,0,0.3,0.1,0.4l0.3,0.5l-0.1,0.4l0.1,0.4l0.2,0.4l-0.1,0.5
	c0.2,0.4,0.3,0.9,0.4,1.4c0.1,0.4,0.2,0.7,0.2,1l5.7-13.6l7.6-18l0.8-1.8l8,3.4L364.1,928.5z M445.7,921.9c-0.1,0.4-0.1,0.9-0.2,1.3
	c-0.1,0.4-0.2,0.8-0.3,1.2c-2.6,11.5-9.1,18.4-19.5,20.8c-3.3,0.4-6.7,0.3-10-0.4c-5.8-1.3-10.6-4.8-14.1-10.3
	c-3-5.9-3.9-11.8-2.7-17.7v-0.6c0-0.1,0-0.2,0-0.3c0-0.2,0.1-0.3,0.1-0.5c0-0.2,0-0.4,0-0.7l0.4-1.9l0.4-1.1l0.4-1.8l0.3-0.5
	l0.1-0.4l0.2-0.4c0.2-0.7,0.4-1.3,0.6-1.8c0.2-0.5,0.5-1,0.8-1.4c5.5-10.6,13.8-15,24.8-13.2l0.6,0.1l1.8,0.4l0.5,0.3l0.4,0.1
	c0.3,0.1,0.5,0.1,0.8,0.2c0.2,0.1,0.5,0.2,0.8,0.3l0.7,0.2c0.7,0.2,1.2,0.5,1.7,0.6c0.2,0.1,0.5,0.2,0.8,0.3
	C444.4,901.1,448,910.2,445.7,921.9L445.7,921.9z M509.8,912.2l-11.9-0.7l-2-0.1l-2.7,42.5l-8.6-0.5l0.6-9.7l0.8-12.7l1.2-18.6
	l0.1-1.5l-13.9-0.8l0.5-7.9h0.4l15.8,1l20.2,1.3L509.8,912.2z M566,951.7l-0.5-0.8c-0.5-0.7-1-1.5-1.4-2.4l-0.4-0.7l-0.5-0.6
	l-0.1-0.5l-0.6-0.8c-0.1-0.2-0.2-0.4-0.3-0.4l-0.2-0.3l-0.3-0.5l-0.2-0.4c-0.1,0-0.2-0.1-0.2-0.1l0.1-0.1l-0.3-0.2l-0.3-0.7l-1-1.5
	l-1-1.4l-0.3-0.5l-0.2-0.5l-0.2-0.3l-0.2-0.3l-0.3-0.3l-0.2-0.2c-0.3-0.6-0.6-1.1-1-1.6l-2-3.5l-8.7,0.8l1.8,19.6l-8.7,0.8l-0.7-8.3
	l-1.7-18.3l-1.7-19l-0.4-4.7l0.5,0l14.6-1.3c0.4-0.1,0.8-0.1,1.1-0.2l1.1-0.1c8.3-0.7,14.3,2.4,17.9,9.3c0.7,1.7,1.1,3.5,1.3,5.3
	c0.1,2.1-0.1,4.3-0.7,6.4c-0.9,3.7-3.6,6.6-7.1,8l0.2,0.2l0.2,0.4l1.2,1.8l0.5,0.8l0.3,0.7l1.3,2.1l0.7,1.1l0.3,0.3l0.2,0.4l0.5,0.9
	c0.1,0.2,0.2,0.4,0.4,0.6c0.2,0.2,0.3,0.4,0.4,0.6c0.2,0.2,0.3,0.5,0.5,0.7c0.1,0.2,0.3,0.4,0.4,0.6l0.4,0.7l0.4,0.6
	c0.2,0.3,0.4,0.5,0.6,0.8c0.1,0.3,0.3,0.6,0.4,0.8c0.6,0.6,1.1,1.4,1.3,2.2l0.2,0.3l0.2,0.3l0.2,0.1l0.6,1.3
	c0.3,0.3,0.5,0.7,0.7,1.2L566,951.7z M639.8,937.5l-0.3-0.5l-0.4-0.5l-0.4-0.7c-0.1,0-0.1-0.1-0.2-0.3c-0.3-0.3-0.5-0.7-0.8-1.1
	c-0.2-0.3-0.4-0.7-0.5-1.1l-0.4-0.3l-0.3-0.5c-0.2-0.3-0.4-0.6-0.6-0.9l-0.1-0.4c-0.3-0.4-0.6-0.8-0.8-1.1c-0.2-0.3-0.4-0.7-0.6-1
	l-12.5,3.2l-6.9,1.7v0.5l-0.1,0.5v0.7l0.1,0.5c-0.1,0.3-0.2,0.6-0.2,0.9v1l-0.2,0.6c0,0.1,0,0.2,0,0.3s0,0.2,0,0.3v1l-0.1,0.3
	l-0.2,3.2l-8.3,2.1l-0.1-0.4v-0.8l0-0.5c0.1-0.4,0.1-0.8,0.1-1.2l0.1-0.2l-0.1-1.2l0.1-0.9l0.2-1.9v-0.5l0.1-1.3v-0.8
	c0.1-0.2,0.1-0.4,0.1-0.6v-0.6l0.1-1.6l0.2-3.1V930l0.1-2.2l0-0.4c0.1-0.6,0.1-1,0.1-1.5c0-0.3,0-0.7,0.1-1v-0.6l0.1-0.4
	c-0.1-0.5-0.1-1,0.1-1.5v-0.9l0-0.5c0-0.2,0.1-0.4,0.1-0.6v-0.5l0.1-0.3v-1l-0.1-0.9l0.2-1.1l0.1-1.4l0-0.4v-0.8l0.1-0.4l0.2-3.1
	l0.1-3.5c0-0.3,0.1-0.6,0.1-0.8c0-0.3,0-0.6,0-0.8l0.2-2l0.3-2.3l-0.1-0.4l0.1-0.7v-0.4l-0.1-0.6l0.2-0.5l0-0.4l-0.1-0.6v-1l0.2-1
	V893l0.6-0.1l9.8-2.5l0.5,1c0.1,0.1,0.2,0.2,0.2,0.4c0.1,0.1,0.2,0.3,0.3,0.5l0.3,0.4l0.8,1.1l0.1,0.3l0.2,0.5l0.2,0.3l0.3,0.4
	l0.6,0.9l0.2,0.2l0.1,0.4c0.4,0.4,0.8,0.9,1.1,1.4l0.3,0.5l0.2,0.2l0.1,0.4c0.4,0.5,0.8,1,1.1,1.5l0.5,1c0.2,0.2,0.3,0.4,0.5,0.7
	c0.2,0.2,0.3,0.5,0.4,0.7l0.6,0.8l0.5,0.9l0.5,0.8c0,0.1,0,0.2,0.1,0.2c0,0,0,0.1,0.1,0.1c0,0,0,0.1,0.1,0.1l0.4,0.4l0.3,0.5
	c0.2,0.2,0.3,0.4,0.4,0.5c0.1,0.1,0.2,0.2,0.3,0.3l0.1,0.5c0.5,0.6,0.9,1.3,1.2,2.1l0.2,0.3c0.1,0.1,0.2,0.3,0.3,0.5
	c0.1,0.1,0.2,0.2,0.3,0.3c0.1,0.1,0.1,0.2,0.2,0.3l0.4,0.8l0.5,0.6l0.2,0.2l0.2,0.5l0.2,0.3l0.3,0.5l0.6,0.8l0.2,0.2l0.1,0.4
	c0.2,0.2,0.5,0.5,0.6,0.8c0.1,0.2,0.3,0.5,0.4,0.7l0.3,0.7c0.5,0.5,0.9,1,1.1,1.7l0.8,1.2c0.2,0.4,0.4,0.7,0.6,1
	c0.1,0.1,0.1,0.2,0.2,0.3c0.1,0.1,0.1,0.2,0.2,0.3l0.7,0.7l0.4,0.7c0.1,0.4,0.4,0.8,0.7,1.2l0.5,1.2l0.4,0.4l0.1,0.2l0.6,1l0.4,0.5
	l0.2,0.5c0.4,0.4,0.7,0.9,1,1.4c0.3,0.5,0.5,0.9,0.8,1.3l0.3,0.3l0.1,0.4c0.1,0.1,0.1,0.2,0.1,0.3c0.3,0.3,0.5,0.7,0.7,1
	c0.2,0.2,0.3,0.4,0.5,0.7c0.1,0.2,0.3,0.5,0.4,0.7L639.8,937.5z M704.7,912.3c-0.2,0.3-0.4,0.5-0.6,0.8c-0.2,0.2-0.4,0.4-0.6,0.7
	c-2.1,1.5-4.3,2.7-6.6,3.7c-7.2,3.3-15.6,3.1-22.7-0.6v-0.3l0.2-0.3c0-0.1,0.1-0.1,0.1-0.1h0.1c0.2-0.7,0.6-1.3,1-1.9l0.2-0.5
	l0.9-1.8l0.2-0.2c0-0.1,0.1-0.2,0.2-0.3c0.2-0.9,0.6-1.7,1.1-2.4l0.3-0.2c5.4,3,10.3,3.5,14.6,1.6c2.5-1.1,4.6-2.7,6.3-4.8
	c0.2-0.7,0.4-1.3,0.8-1.9v-0.4c0.1-0.4,0.2-0.8,0.2-1.2c0-0.4,0-0.8,0-1.1l-0.3-0.7c-0.9-2.2-2.7-3.8-5-4.3h-0.5
	c-0.3,0-0.5,0-0.8,0.1l-0.7,0.1l-0.3-0.1l-0.3,0.1l-0.6,0.1h-0.3l-0.3,0.1h-0.3c-0.4,0.1-0.8,0.2-1.2,0.3c-0.3,0.1-0.7,0.1-1,0.1
	l-0.4,0.2l-1.1,0.2l-0.3,0.1l-0.5,0.1h-0.3c-0.7,0.3-1.4,0.4-2.2,0.4c-8.5,2.5-14.8,0.3-18.9-6.6c-3.6-8.9-0.9-15.7,8.2-20.7
	l1.4-0.7c0.4-0.2,0.9-0.4,1.3-0.6c6.9-3,13.3-2.7,19.2,1l-0.5,0.7c-0.1,0.3-0.2,0.5-0.3,0.7c-0.1,0.2-0.2,0.4-0.3,0.6l-0.4,0.9
	l-0.3,0.3c-0.1,0.6-0.4,1.2-0.8,1.5c-0.1,0.7-0.4,1.3-1,1.8c0,0.2,0,0.4-0.1,0.6c-0.1,0.2-0.2,0.3-0.3,0.5c-4.4-2.6-8.7-2.9-13-1.1
	l-0.7,0.3c-0.2,0.1-0.5,0.2-0.7,0.4c-3.7,1.8-5.4,4.4-5,8c0.7,2,2.3,3.7,4.3,4.5l1,0.2l0.5,0l1.5,0.1l0.6-0.3l0.5-0.1l0.6-0.1
	c0.2,0,0.5,0,0.7-0.1c0.2-0.1,0.4-0.1,0.6-0.1l0.7-0.1l0.5-0.1l0.3-0.1l1.1-0.2l3.4-0.6l0.4-0.2h0.4l0.3-0.1h0.5l1.9-0.4h0.4
	l0.6-0.1l1.1-0.2c1-0.2,2-0.2,3-0.1l0.4,0.2h0.4l0.4,0.2c0.2,0.1,0.5,0.1,0.7,0.1c0.3,0,0.5,0.1,0.5,0.2l2.1,0.7
	c2.5,1.5,4.6,3.8,5.8,6.5c0.7,1.4,1,2.9,1.1,4.5C709,904.6,707.8,908.9,704.7,912.3L704.7,912.3z M759.6,882.7l-14.3,9l-4.1,2.6
	l-6.9-11l-8.1-12.9l-10.9-17.2l-1.1-1.7l0.7-0.4l17.1-10.8l9-5.7l4.3,6.8l-9.4,5.9l-10.1,6.3l6.7,10.7c0.1,0.2,0.4,0.3,0.7,0.2h0
	l12-7.5l1.8-1.1l3.6-2.3l4.1,6.6l-13.7,8.7l-4,2.5l7.1,11.2c0.2,0.3,0.4,0.4,0.6,0.3l3.7-2.3l15.3-9.6l1.4-0.9l4.2,6.7L759.6,882.7z
	 M819.4,836.2l-1-0.3H818l-0.4-0.2l-1.3-0.3c-0.4-0.1-0.7-0.2-1-0.2L815,835c-0.6-0.1-1.1-0.2-1.5-0.3c-0.3-0.1-0.7-0.2-1-0.4
	l-1-0.2l-2.3-0.6l-0.3-0.1h-0.3l-1.1-0.4c-0.5,0-1-0.2-1.4-0.5c-0.3,0-0.6,0-0.8-0.1c-0.2,0-0.5-0.1-0.7-0.2
	c-0.5-0.2-0.9-0.3-1.2-0.4c-0.1,0.1-0.3,0-0.4-0.1h-0.3l-0.4-0.2l-0.4-0.1l-0.4-0.2c-0.3,0-0.6,0-0.9-0.1c-0.3,0-0.5-0.1-0.8-0.1
	l-2.9-0.8l-0.6-0.3c-0.3,0-0.7-0.1-1-0.2c-0.3-0.1-0.6-0.2-0.9-0.3c-0.8-0.1-1.5-0.3-2.2-0.6h-0.8l-0.7-0.3l-0.8-0.1l-0.9-0.3
	l-0.6-0.2c-0.3,0-0.6-0.1-0.8-0.2c-0.2-0.1-0.4-0.2-0.6-0.2l-1-0.3c-0.1,0-0.1,0-0.2,0h-0.2l-1.5-0.4c-0.6-0.1-1.2-0.3-1.7-0.6
	l-0.5-0.1l-0.4-0.2l-0.6-0.1l-0.3-0.1c-0.1,0-0.2,0-0.3,0c-0.1,0-0.1,0-0.2,0c-0.1,0-0.2,0-0.3-0.1c-0.8-0.2-1.6-0.4-2.4-0.6
	l23.8,27.3l-6.6,5.8l-5.5-6.3L777,837.9l-12.6-14.4l-3.1-3.6l0.4-0.3l6.9-6.1l1,0.3h0.4l1,0.4c0.3,0,0.6,0.1,0.8,0.2l0.7,0.2h0.3
	l0.2,0.1l2.1,0.6l1,0.3l1,0.2c0.1,0,0.2,0.1,0.2,0.1c0.5,0.1,0.9,0.1,1.3,0.3c0.3,0.1,0.6,0.2,0.9,0.4c0.8,0.1,1.5,0.2,2.2,0.5
	l0.8,0.2l0.8,0.4l0.5,0.2l0.4,0l1,0.4h0.4l1.7,0.5l0.9,0.4l0.9,0.2l1.6,0.4h0.4l0.4,0.1l0.4,0.2l0.5,0.1l0.3,0.1l1,0.3l0.4,0.1
	l1.7,0.4l0.2,0.1l0.5,0.1c0.1,0,0.2,0,0.3,0.1l0.8,0.1c0.2,0,0.5,0.1,0.7,0.2l0.8,0.2l0.5,0.3l0.9,0.1c0.3,0,0.6,0.1,0.8,0.3
	l0.9,0.3c0.2,0,0.5,0.1,0.7,0.2c0.1,0,0.2,0.1,0.3,0.1l0.9,0.2c0.4,0.1,0.7,0.2,1,0.3c0.3,0.1,0.6,0.2,0.8,0.3
	c0.1,0.1,0.3,0.1,0.4,0.1l0.6,0l0.3,0.2l0.4,0.1h0.4l0.4,0.3c0.5,0,0.9,0.1,1.4,0.2c0.4,0.1,0.7,0.2,1,0.3l-9.7-11.2l-12.9-14.7
	l-1.3-1.5l6.6-5.7l33.2,38.1L819.4,836.2z M863.5,777.6l-7.7,15.6l-7.7-15.6l-17.3-2.5l12.4-12.2l-2.9-17.2l15.4,8.1l15.4-8.1
	l-2.9,17.2l12.5,12.2L863.5,777.6z M673,849c-49,22.6-102.4,34.2-156.3,34.2c-142.6,0-279.3-81.5-342.5-219.3
	c-24.5-53.4-36.1-111.8-33.9-170.5h7.9c-2.3,57.6,9,114.9,33,167.3c84.7,184.7,303.9,266,488.5,181.3
	c120.7-55.3,197.2-168.2,212.1-291.2l7.5,2.3C873.7,678.2,795.7,792.7,673,849L673,849z M858.9,533.4l-18.2-51H895l7.7,44
	L858.9,533.4z M927.8,478.2l-102.8-15.2l16.9-24L942.8,423L927.8,478.2z"/>
<path class="st0" d="M694,132.4v-1.2l0.2-1v-1l0.3-2.4l0.3-1.2v-1.1l0.2-0.6c-0.1-0.1-0.1-0.3,0-0.5c0-0.1,0-0.2,0-0.3l0.2-2.1
	l0.1-0.5v-0.7l0.2-0.4l0.1-2.4l0.2-0.8c0-0.2,0-0.3,0-0.5c0-0.1,0.1-0.3,0.1-0.4v-0.9l0.2-1.3c0-0.2,0-0.3,0.1-0.5
	c-0.1-0.1-0.1-0.3,0-0.4l-0.1-0.5l0.2-0.4c0-0.5,0.1-1,0.3-1.4c-0.1-0.1-0.2-0.2-0.2-0.2h0.1v-1.8l-0.2,0.4l-1.7,1.7l-0.6,0.8
	l-0.8,0.7l-0.4,0.8l-0.6,0.7l-0.7,0.6l-0.5,0.7l-0.8,0.6l-0.2,0.4l-0.4,0.3c-0.3,0.5-0.7,0.9-1,1.3c-0.3,0.4-0.6,0.7-1,1l-0.4,0.5
	l-0.5,0.5l-1.7,1.8l-1,1.3l-0.6,0.5l-0.4,0.4l-0.5,0.6l-0.4,0.4l-0.3,0.4l-0.3,0.3l-0.3,0.3l-0.2,0.3c-0.3,0.4-0.6,0.8-0.9,1.1
	l-0.8,0.8l14.6,6.5L694,132.4z"/>
<polygon class="st0" points="552.5,482.9 552.5,489 565.2,488.9 565.2,482.8 "/>
<path class="st0" d="M538.8,82.9c0.2,0,0.3,0.1,0.5,0.1c0.7,0,1.4,0,2.2-0.1c3-1.8,4.5-4.2,4.6-7.1c0-0.6,0-1.2-0.1-1.7
	c-0.1-0.6-0.2-1.2-0.4-1.8c-0.7-2.1-2.2-3.8-4.1-4.7l-0.7-0.2l-0.7-0.1l-0.8-0.1c-0.2,0-0.5-0.1-0.7-0.1l-11.4-0.5l-0.7,15.9
	l11.8,0.5C538.5,82.8,538.6,82.9,538.8,82.9z"/>
<polygon class="st0" points="669.6,383 682.4,382.9 682.3,375.4 682.3,375.4 669.6,375.6 669.6,383 "/>
<polygon class="st0" points="630.2,383.5 630.2,383.5 630.2,383.5 638.8,383.4 642.9,383.3 642.9,383.3 642.9,383.3 642.9,377.8
	642.9,375.9 630.1,376.1 630.1,376.1 630.1,376.1 "/>
<path class="st0" d="M299.5,852.4l-0.2,0.4l-1.8,1.4l-0.7,0.7l-0.9,0.5l-0.5,0.7l-0.6,0.6L294,857l-0.5,0.6l-0.8,0.5l-0.2,0.3
	l-0.4,0.2c-0.4,0.4-0.7,0.8-1.1,1.1c-0.3,0.3-0.7,0.6-1.1,0.8l-0.4,0.4l-0.5,0.4l-1.8,1.4l-1.1,1.1l-0.6,0.4l-0.4,0.4l-0.6,0.5
	l-0.4,0.3l-0.4,0.3l-0.3,0.2l-0.3,0.2l-0.2,0.2c-0.3,0.3-0.7,0.7-1,1l-0.8,0.6l12.8,8.1l0.3-0.9l0.2-1.1l0.3-0.9l0.1-1l0.6-2.2
	l0.4-1.1l0.1-1l0.2-0.5c0-0.1,0-0.3,0-0.4c0-0.1,0.1-0.2,0.1-0.3l0.4-1.9l0.2-0.4l0.1-0.6l0.2-0.4l0.4-2.2l0.3-0.7
	c0-0.2,0-0.3,0.1-0.5c0.1-0.1,0.1-0.2,0.1-0.4l0.1-0.6v-0.3l0.3-1.2c0-0.2,0.1-0.3,0.2-0.4c0-0.1,0-0.3,0.1-0.4l0-0.5l0.2-0.3
	c0.1-0.5,0.2-0.9,0.5-1.3c-0.1-0.1-0.1-0.2-0.1-0.2h0.1L299.5,852.4z"/>
<path class="st0" d="M424.7,899.7c-8.8-0.3-14.4,4.6-16.8,14.9c-0.3,1.3-0.5,2.7-0.7,4.1c-1.1,7.1,0.8,12.5,5.7,16.3
	c0.2,0,0.3,0.1,0.5,0.2l3,1.6c10.5,2.2,17-2.1,19.6-13c0.2-0.4,0.3-0.9,0.4-1.4c0.1-0.4,0.2-0.9,0.3-1.4
	C439.5,909.3,435.5,902.2,424.7,899.7z"/>
<polygon class="st0" points="650.2,383.3 662.9,383.1 662.9,375.7 662.9,375.7 650.1,375.8 650.2,381.4 "/>
<polygon class="st0" points="606.3,410.2 638.6,409.8 638.8,409.8 638.8,406.3 638.7,396 638.7,396 638.7,396 606.2,396.4
	606.2,403.3 "/>
<polygon class="st0" points="608.7,383.6 608.7,383.6 608.9,383.6 621.4,383.4 621.4,383.4 621.4,383.4 621.4,380.9 621.4,376
	621.4,376 621.4,376 608.6,376.2 608.7,379.9 "/>
<polygon class="st0" points="557.3,410.6 590.5,410.2 590.4,396.5 590.4,396.5 590.4,396.5 568,396.7 557.2,396.9 557.2,396.9
	557.2,396.9 557.2,400.3 "/>
<polygon class="st0" points="422.5,388.5 422.5,388.5 460.5,388.3 498.1,388 498.1,388 498,379.5 461,379.7 422.4,380 422.5,388.5
	"/>
<polygon class="st0" points="404.2,388.6 404.2,388.6 404.2,388.6 404,380 300.9,380.6 301,389.1 "/>
<polygon class="st0" points="701.9,382.9 701.9,381 701.8,375.4 701.8,375.4 694.2,375.5 689.1,375.6 689.2,383 "/>
</svg>
