<!--                     Made by: Remission special for SS220 SierraBay                    -->
<svg xmlns="http://www.w3.org/2000/svg" viewBox="0 0 1024 1024" opacity=".33">
  <circle class="cls-1" cx="117.15" cy="597.3" r="67.19"/>
    <path class="cls-1" d="M969.79,624.48,911.5,445.07a97.57,97.57,0,0,1-32.23,10L930.13,611.6,516.45,912.15,183.17,670a97.71,97.71,0,0,1-31.08,19.11L516.45,953.85Z"/>
    <path class="cls-1" d="M117.16,499.1a99.44,99.44,0,0,1,21.4,2.33L260.78,125.28H772.12l47.52,146.25a97.73,97.73,0,0,1,31.93-10.9L796.63,91.55H236.27L103.54,500.05a98.75,98.75,0,0,1,13.4-.95h.22"/>
    <path class="cls-1" d="M436.61,588.89a8.53,8.53,0,0,0,7.27,3.5c10.3,0,20.59,0,30.89,0L336.43,388q-15.8,0-31.58,0a10,10,0,0,0-3.76.67Z"/>
    <path class="cls-1" d="M522.74,589.2a10.82,10.82,0,0,0,.89-4.86V396c0-5.67-2.27-8-7.82-8h-53c-5.53,0-7.92,2.42-7.92,8v92.89Z"/>
    <path class="cls-1" d="M453.45,496.68c-.19-.24-.38-.47-.54-.71q-35.22-51.84-70.42-103.7a8.76,8.76,0,0,0-7.88-4.3q-15.75,0-31.52,0L481.43,592.37l34.2,0a15.06,15.06,0,0,0,2.45-.19Z"/>
    <path class="cls-1" d="M297.54,393.3a12.15,12.15,0,0,0-.32,2.49V567.56c0,6.11,0,12.21,0,18.32a6.24,6.24,0,0,0,5.77,6.41c.8.08,1.61.06,2.42.06h50.84c5.94,0,8.09-2.19,8.09-8.19V492Z"/>
    <path class="cls-1" d="M756.22,447.9q0-11.47,0-22.94H529.77q0,11.48,0,22.94c0,5,1.67,7.32,5.92,8H750.3C754.55,455.22,756.22,452.89,756.22,447.9Z"/>
    <path class="cls-1" d="M756.22,419.38V396.3a22.45,22.45,0,0,0-.06-2.46c-.39-3.46-3.19-5.84-6.94-5.85H536.77c-3.76,0-6.55,2.39-6.94,5.85a22.45,22.45,0,0,0-.06,2.46v23.08Z"/>
    <path class="cls-1" d="M609.15,461.3V567.78c0,6.11,0,12.21,0,18.32a6.25,6.25,0,0,0,5.77,6.41,21.73,21.73,0,0,0,2.42.06h50.84c5.94,0,8.09-2.19,8.09-8.19,0-19.66.32-75,.56-123.08Z"/>
  <circle class="cls-1" cx="865.82" cy="357.61" r="67.19"/>
</svg>
